<svg xmlns="http://www.w3.org/2000/svg" viewBox="0 0 117.807 134.75"><path fill="#FFF" d="M31.51 6.4h79v122.99h-79z"/><path fill="#FFF" d="M1.51 37.91h79v91.48h-79z"/><g fill="#A5A5B5"><path d="M27.98 79.417h8.638c.355 0 .356 0 .356.352 0 4.233-.014 8.466.01 12.7.005 1.174-.937 2.236-2.214 2.203-.376-.01-.754.01-1.13-.006-.227-.01-.29.074-.288.293.008 1.4.005 2.8.002 4.198-.002 1.128-.888 2-2.023 1.998-1.115-.002-1.98-.875-1.982-2.007-.002-1.382-.007-2.764.004-4.145.002-.252-.063-.346-.33-.34-.707.017-1.416.015-2.125 0-.247-.004-.323.073-.322.32.01 1.372.007 2.745.004 4.117-.004 1.152-.796 1.998-1.936 2.074-1.063.07-2.066-.874-2.072-1.967-.008-1.4-.01-2.8.004-4.2.003-.27-.072-.352-.346-.347-.51.01-1.027.027-1.528-.046-1.017-.148-1.74-1.014-1.747-2.045-.01-1.435-.003-2.87-.003-4.305v-8.45c0-.4 0-.402.39-.402 2.88.002 5.76.002 8.638.002zM27.954 78.59h-8.69c-.387 0-.394-.003-.368-.396.15-2.23 1.127-4.052 2.792-5.505.496-.434 1.074-.773 1.625-1.14.15-.1.19-.166.096-.334-.39-.687-.762-1.382-1.14-2.074-.04-.07-.075-.144-.115-.213-.098-.168-.126-.33.07-.44.196-.11.3.03.382.176.202.36.4.72.598 1.082.225.41.456.814.67 1.228.088.172.18.205.36.13 1.307-.557 2.678-.782 4.094-.733 1.128.04 2.225.253 3.266.698.27.116.385.062.514-.187.354-.685.735-1.355 1.106-2.03.043-.08.083-.16.135-.233.088-.122.19-.235.356-.135.16.096.176.237.09.395-.226.418-.452.836-.68 1.253-.188.346-.368.698-.57 1.036-.122.2-.084.297.123.413 1.364.763 2.478 1.793 3.278 3.146.63 1.066 1.007 2.214 1.076 3.456.022.403.015.404-.382.405h-8.688zM24.6 74.656c0-.43-.366-.804-.782-.797a.798.798 0 0 0-.78.797c.006.41.37.77.78.768.42-.002.78-.358.78-.768zm7.518.767a.788.788 0 0 0 .77-.776c0-.433-.364-.798-.786-.79-.416.006-.787.392-.775.807.01.41.38.765.79.76zM41.81 85.296c0 1.408.008 2.816 0 4.225a1.98 1.98 0 0 1-1.578 1.955c-1.223.27-2.423-.65-2.43-1.9-.012-2.86-.01-5.723 0-8.584.004-1.07.927-1.95 2.002-1.948 1.08.003 1.994.876 2.003 1.95.014 1.433.004 2.868.004 4.304zM18.124 85.29v4.2c0 1.14-.85 2.01-1.97 2.017-1.145.008-2.032-.843-2.036-1.983-.008-2.834-.007-5.67 0-8.503.003-1.1.927-1.99 2.027-1.98 1.09.012 1.977.906 1.98 2v4.25z"/></g><path fill="#FFF" d="M51.096 38.886a1.798 1.798 0 0 1-3.596 0 1.797 1.797 0 1 1 3.596 0z"/><path fill="#A5A5B5" d="M47.245 33.126H8.68c-4.773 0-8.68 3.907-8.68 8.682v84.263c0 4.775 3.906 8.68 8.68 8.68h38.563c4.776 0 8.683-3.907 8.683-8.682v-84.26c0-4.775-3.906-8.682-8.68-8.682zm-35.228 5.537c0-.304.25-.553.553-.553h30.786c.304 0 .553.25.553.553v.446c0 .303-.25.552-.554.552H12.57a.554.554 0 0 1-.553-.553v-.447zM43.91 128.16c0 .303-.25.552-.554.552H12.57a.554.554 0 0 1-.553-.553v-.447c0-.304.25-.553.553-.553h30.786c.304 0 .553.25.553.553v.446zm8.52-5.99H3.497V43.978H52.43v78.194z"/><path fill="#FFF" d="M115.938 67.367c0 .875-.773 1.587-1.733 1.587-.957 0-1.733-.712-1.733-1.587 0-.876.776-1.587 1.733-1.587.96 0 1.733.712 1.733 1.587z"/><path fill="#A5A5B5" d="M105.394 0h-63.95C34.617 0 29.03 5.11 29.03 11.357V35.35h6.956V10.314h74.864v111.843H47.395v7.868l-18.24-.367c.813 5.536 6.02 5.075 12.287 5.075h63.948c6.83 0 12.416-5.112 12.416-11.36V11.356C117.806 5.11 112.22 0 105.394 0z"/></svg>