<svg xmlns="http://www.w3.org/2000/svg" viewBox="0 0 115.029 136.35"><path fill="#FFF" d="M31.293 3.466h79v129.828h-79z"/><path fill="#FFF" d="M1.293 36.727h79v96.566h-79z"/><g fill="#A5A5B5"><path d="M53.112 32.5H4.04A4.05 4.05 0 0 0 0 36.537v95.776a4.05 4.05 0 0 0 4.04 4.037H53.11a4.05 4.05 0 0 0 4.04-4.037V36.537a4.05 4.05 0 0 0-4.04-4.037zm-27.237 5.658c0-.31.254-.565.565-.565h8.46c.31 0 .564.254.564.565v.456c0 .31-.254.565-.564.565h-8.46a.566.566 0 0 1-.565-.566v-.456zM22.7 37.37c.562 0 1.014.456 1.014 1.016a1.014 1.014 0 0 1-2.028 0c0-.56.454-1.015 1.014-1.015zm5.875 96.07a3.44 3.44 0 1 1 .002-6.88 3.44 3.44 0 0 1-.002 6.88zm25.004-9.945H3.572V43.588H53.58v79.907z"/><path d="M109.725 0H34.3C31.388 0 29 2.384 29 5.3v29.474h4.69V10.556h76.65v112.9H47.642v10.318H29.79c.935 1.526 2.603 2.56 4.512 2.56h75.424c2.917 0 5.304-2.384 5.304-5.3V5.3c0-2.916-2.388-5.3-5.305-5.3zm-37.71 6.834a1.333 1.333 0 0 1 0-2.665 1.33 1.33 0 0 1 0 2.665zm0 126.43A3.264 3.264 0 0 1 68.75 130a3.265 3.265 0 1 1 3.264 3.265z"/></g><path fill="#A5A5B5" d="M37.213 82.964c-.038-3.864 3.15-5.716 3.293-5.808-1.792-2.622-4.583-2.98-5.578-3.023-2.376-.24-4.635 1.4-5.84 1.4-1.204 0-3.064-1.364-5.034-1.328-2.59.04-4.977 1.505-6.31 3.825-2.69 4.668-.69 11.584 1.933 15.37 1.28 1.852 2.81 3.933 4.815 3.86 1.932-.078 2.662-1.25 4.998-1.25s2.992 1.25 5.036 1.21c2.078-.038 3.395-1.888 4.668-3.747 1.47-2.15 2.077-4.23 2.113-4.34-.047-.02-4.054-1.554-4.094-6.17zm-3.84-11.337c1.064-1.292 1.782-3.083 1.586-4.872-1.535.063-3.393 1.02-4.494 2.31-.988 1.143-1.852 2.968-1.62 4.72 1.713.134 3.46-.87 4.526-2.158z"/></svg>