<svg xmlns="http://www.w3.org/2000/svg" viewBox="0 0 182.054 129.758"><path fill="#FFF" d="M3.238 3.533h175v107h-175z"/><g fill="#A5A5B5"><path d="M117.56 126.443H64.495c-.927 0-1.684.746-1.684 1.658v1.66h56.434v-1.66c0-.91-.758-1.657-1.684-1.657z"/><path d="M73.517 107.527L69.58 126.99h42.896l-3.936-19.463z"/><path d="M108.54 107.527H73.517l17.022 20.01h21.936z"/><path d="M177.93 0H4.124C1.855 0 0 1.82 0 4.043V111.24h.05c.296 1.984 2.013 3.52 4.075 3.52H177.93c2.06 0 3.777-1.537 4.074-3.52h.05V4.044c0-2.223-1.857-4.043-4.125-4.043zm-3.872 105.766H7.996V8.42H174.06v97.346z"/></g><g fill="#A5A5B5"><path d="M84.428 45.06c0 .11.044.154.134.135.07 0 .148-.084.228-.255a.48.48 0 0 1 .416-.282h-.268c-.34.056-.51.19-.51.403zM86.76 44.74a.44.44 0 0 1 .47.12c.134.135.237.194.308.176.107-.053.134-.134.08-.242-.142-.232-.428-.25-.857-.054z"/><path d="M107.275 73.218a9.98 9.98 0 0 0-.442-.254 6.924 6.924 0 0 1-.577-.35 3.978 3.978 0 0 1-.563-.508 3.102 3.102 0 0 1-.55-.764 6.122 6.122 0 0 1-.388-1.085 6.48 6.48 0 0 1-.214-1.516c-.25.216-.388.64-.415 1.275-.027.636.107 1.283.402 1.944.295.66.737 1.09 1.327 1.286.572.197 1.032.407 1.38.63.35.224.573.48.672.764.098.286-.067.594-.496.925-.43.33-1.117.658-2.065.98-1.305.445-2.23.826-2.776 1.14-.546.31-1.346.905-2.4 1.782-.716.59-1.476.907-2.28.952-.805.043-1.458-.25-1.958-.886-.5-.635-.66-1.534-.483-2.695.338-2.234.33-3.977-.028-5.23-.286-.983-.35-1.85-.188-2.6.16-.752.41-1.19.75-1.314.34-.125.707.144 1.1.805.036.09.116.265.24.524.126.26.23.442.31.55.08.107.2.246.36.416.162.17.363.29.604.36.24.073.523.117.844.135a3.11 3.11 0 0 0 1.636-.375c.483-.268.844-.568 1.086-.9.24-.33.483-.647.724-.95.24-.304.45-.475.63-.51.197-.035.376-.232.536-.59.16-.357.268-.854.322-1.488.053-.635.01-1.39-.134-2.266-.268-1.556-.8-3.263-1.596-5.122-.796-1.858-1.685-3.315-2.668-4.37-1.77-1.878-2.96-3.826-3.566-5.846-.626-2.128-.894-4.04-.804-5.74.09-1.214-.174-2.533-.79-3.954-.618-1.42-1.435-2.507-2.454-3.258-.643-.483-1.44-.854-2.387-1.113a10.01 10.01 0 0 0-2.842-.36c-1.162 0-2.092.186-2.79.56-1.43.77-2.377 1.704-2.84 2.804-.466 1.1-.68 2.453-.644 4.062.072 3.54.215 6.31.43 8.312-.25.93-1.36 2.673-3.325 5.23-.358.357-.706.84-1.046 1.447-.34.607-.61 1.152-.805 1.635a61.77 61.77 0 0 0-.79 2.092c-.332.91-.57 1.556-.712 1.93a6.906 6.906 0 0 1-.59 1.127c-.268.43-.483.85-.643 1.26-.16.41-.25.877-.268 1.395-.018.393 0 .732.053 1.017.07.43.205.563.402.402.804-.608 1.814-.25 3.03 1.072.858.93 2.368 3.093 4.532 6.49.178.304.357.63.535.978.18.35.35.813.51 1.394.16.58.227 1.104.2 1.57-.027.463-.232.893-.617 1.286s-.962.643-1.73.75c-.41.054-.908.018-1.488-.107-.58-.126-1.32-.33-2.212-.617a35.134 35.134 0 0 0-1.985-.59 83.387 83.387 0 0 0-2.668-.55c-1.153-.223-1.91-.388-2.266-.496-.61-.16-.94-.394-.993-.698-.054-.25.07-.68.376-1.287.304-.608.456-1.046.456-1.313a2.2 2.2 0 0 0-.028-.59 2.33 2.33 0 0 0-.12-.456 8.933 8.933 0 0 0-.23-.482 4.08 4.08 0 0 1-.213-.483c-.323-.75-.368-1.26-.135-1.527.16-.232.545-.323 1.153-.268.912.09 1.653-.045 2.226-.402.947-.59 1.233-1.538.858-2.843 0 .608-.107 1.064-.322 1.368-.215.304-.59.616-1.126.938-.304.18-.84.286-1.61.322-.768.035-1.277.16-1.527.375-.18.16-.272.402-.282.724-.01.323.03.65.12.98.09.33.18.71.27 1.14.088.428.124.787.106 1.073-.017.196-.178.684-.482 1.46-.304.778-.367 1.373-.188 1.784.09.197.24.37.456.524.215.15.514.28.898.388.384.107.737.192 1.06.254.32.062.768.143 1.34.24.572.1 1.028.184 1.368.256 1.144.23 2.45.616 3.915 1.152 1.465.536 2.458.813 2.977.832.5.018.978-.086 1.435-.308.455-.224.843-.48 1.165-.764.322-.287.8-.555 1.435-.805.634-.25 1.345-.384 2.132-.402.358-.018.876-.04 1.555-.066.68-.027 1.19-.04 1.528-.04 1.537 0 2.7.008 3.486.026.537.018.957.103 1.26.254.305.152.5.327.59.524.09.196.237.423.444.683.205.26.47.47.79.632.68.322 1.476.45 2.388.388.912-.063 1.52-.236 1.823-.523.5-.483 1.175-1.055 2.025-1.716.85-.66 1.613-1.162 2.293-1.5a46.2 46.2 0 0 1 .724-.35 31.724 31.724 0 0 0 1.702-.858c.33-.18.6-.345.805-.497.205-.152.416-.327.63-.523.215-.197.353-.394.416-.59a1.52 1.52 0 0 0 .067-.603c-.018-.206-.125-.42-.322-.644-.195-.223-.472-.443-.83-.658zm-13.542-25.26c.054-.034.09-.048.107-.04a.61.61 0 0 1 .107.107c.054.063.103.12.148.175.044.053.107.126.188.213.08.09.165.16.255.215.107.072.237.12.39.148a.794.794 0 0 1 .347.134c.08.063.138.166.174.308a.744.744 0 0 1-.095.536c-.1.16-.228.233-.39.215-.32-.072-.67-.354-1.045-.846-.374-.49-.437-.88-.187-1.166zM90.408 37.54a.855.855 0 0 0 .16-.28.613.613 0 0 0 .014-.336.583.583 0 0 1 .027-.35c.044-.114.147-.18.307-.2.16 0 .375.134.643.402.053.035.138.09.255.16.116.072.197.135.24.188.046.053.068.1.068.134-.036.09-.116.152-.24.187a1.49 1.49 0 0 1-.403.053c-.143 0-.224.01-.24.027a1.316 1.316 0 0 0-.403.24 7.057 7.057 0 0 1-.295.243c-.072.053-.143.053-.214 0-.072-.108-.1-.183-.08-.228a1.43 1.43 0 0 1 .16-.24zm-12.98 20.07c.126-.142.215-.258.27-.348a1.59 1.59 0 0 0 .147-.36c.044-.153.085-.264.12-.336.037-.07.09-.1.162-.08.035.018.063.034.08.052.018.02.028.04.028.067v.08a.648.648 0 0 1-.053.23.757.757 0 0 0-.053.16 2.97 2.97 0 0 1-.054.187c-.072.18-.184.34-.335.483-.15.144-.263.206-.334.187-.11-.033-.102-.142.023-.32zm17.364 14.576c.152.938.21 1.595.174 1.97-.036.573-.156 1.377-.362 2.413a66.935 66.935 0 0 0-.39 2.065c-.375-.02-.59-.157-.642-.416-.053-.26 0-.596.16-1.007.394-1.198.6-2.02.618-2.467.036-.823-.053-1.287-.268-1.395-.197-.142-.5.127-.912.805-.787 1.287-2.37 2.066-4.746 2.334-2.145.284-3.63-.037-4.45-.967-.18-.126-.36-.148-.537-.067-.18.08-.295.166-.348.254-.02.035 0 .09.052.16.053.072.138.18.255.323.116.143.21.286.282.43.696 1.214.634 2.036-.19 2.466 0-.824-.062-1.454-.187-1.892-.125-.438-.376-.92-.75-1.448-.377-.528-.636-.926-.78-1.194.537-.053.944-.26 1.22-.616.278-.357.403-.74.376-1.153a1.483 1.483 0 0 0-.47-1.02c-.16-.16-.992-.843-2.494-2.05-1.502-1.207-2.43-2.015-2.79-2.427a12.1 12.1 0 0 0-.642-.536c-.358-.286-.58-.536-.67-.75-.823-1.806-.913-3.29-.27-4.453l.108-.133c.09-.017.098.144.027.483-.108.502-.144 1-.108 1.502.07 1.126.393 1.966.965 2.52.376.376.635.35.778-.08.107-.144.157-.672.147-1.583-.01-.912.004-1.53.04-1.85.143-1.02.567-2.28 1.273-3.782.706-1.502 1.265-2.307 1.676-2.414a2.28 2.28 0 0 1-.307-1.69c.116-.607.304-1.126.563-1.556.26-.428.523-.925.79-1.487.27-.562.403-1.067.403-1.515a.93.93 0 0 1 .026-.268c.053-.16.277.036.67.59.752 1.11 1.315 1.762 1.69 1.958.394.215.832.206 1.315-.026.484-.233 1.078-.618 1.784-1.154.706-.536 1.31-.93 1.81-1.18.054-.018.138-.06.255-.122a3.84 3.84 0 0 1 .267-.134c.063-.026.143-.067.24-.12.1-.054.175-.1.23-.135a1.65 1.65 0 0 0 .16-.12.36.36 0 0 0 .107-.135.35.35 0 0 0 .027-.12c-.035-.162-.11-.26-.227-.297-.117-.035-.273-.013-.47.067-.196.08-.415.187-.656.322-.24.134-.51.287-.805.456-.295.17-.595.327-.898.47a7.692 7.692 0 0 1-.966.375c-.34.107-.66.17-.965.187-.75.02-1.35-.178-1.797-.59-.286-.268-.438-.438-.456-.51-.018-.07.063-.088.242-.053.965.126 1.67.144 2.118.053.465-.07 1.09-.277 1.877-.616.16-.07.567-.246 1.22-.524.652-.277 1.158-.47 1.515-.576.214-.053.362-.138.442-.255.08-.117.107-.224.08-.323a.37.37 0 0 0-.173-.228c-.196-.108-.374-.036-.535.214-.09.16-.278.318-.563.47-.286.15-.55.267-.79.348-.242.08-.55.174-.926.28-.375.11-.58.172-.617.19-.985.303-1.896.437-2.736.4-.394-.017-.71-.074-.952-.174-.24-.097-.407-.215-.496-.35a4.096 4.096 0 0 0-.43-.508 2.982 2.982 0 0 0-.67-.523c-.18-.09-.246-.25-.2-.483.043-.232.182-.474.415-.724.018-.018.202-.13.55-.335.35-.205.595-.416.738-.63.16-.25.438-.51.83-.778.018-.07.032-.268.04-.59.01-.323-.075-.67-.254-1.047-.18-.375-.42-.562-.724-.562-.43-.018-.733.107-.912.375-.18.268-.26.6-.24.992.016.34.102.64.254.9.152.26.29.387.416.387.197-.018.26.053.188.215-.107.197-.25.322-.43.375-.124.036-.263-.085-.415-.36a3.56 3.56 0 0 1-.347-1.007c-.08-.394-.112-.725-.094-.993a4.06 4.06 0 0 1 .44-1.595c.26-.51.63-.755 1.114-.737.5.02.902.322 1.207.912.305.59.448 1.394.43 2.414.053.126.192.17.416.134.223-.035.518-.04.885-.014.367.026.63.12.792.282.017 0 .027-.134.027-.402-.323-2.253.472-3.45 2.386-3.594.286.053.527.12.724.2.197.082.406.216.63.403.223.187.41.46.563.818.15.358.272.804.362 1.34v.993c0 .573-.116.895-.35.966-.374.126-.642.12-.804-.014-.16-.134-.142-.37.054-.71.18-.447.143-.966-.107-1.556-.25-.59-.706-.858-1.368-.804-.448.018-.77.26-.967.724a2.65 2.65 0 0 0-.214 1.368c.052.447.15.68.294.697.107.02.424.16.952.43.527.267.925.427 1.193.482.696.142 1.094.366 1.192.67.098.304.058.746-.12 1.327-.18.58-.233 1.06-.162 1.434.07.395.205.752.402 1.074.197.323.406.617.63.885.223.267.487.77.79 1.5.305.734.582 1.655.832 2.763.017.018.085.08.2.187.117.107.233.24.35.402.115.16.254.38.415.657.16.277.334.683.522 1.22.188.535.362 1.152.523 1.85.197.822.3 1.78.308 2.868.01 1.09.08 1.837.214 2.24.134.402.478.568 1.032.497.696-.035 1.143-.41 1.34-1.127.59-2.073.107-4.56-1.448-7.454-.59-1.127-1.1-1.87-1.528-2.226.625.357 1.27 1.028 1.93 2.01.662.985 1.082 1.904 1.262 2.763.017.09.067.328.147.71.08.385.125.61.134.672.01.063.044.246.107.55.063.304.094.5.094.59 0 .09.01.264.027.523.017.26.013.46-.013.603a8.82 8.82 0 0 0-.08.577c-.028.24-.073.473-.135.697-.063.224-.13.47-.2.737.982.428 1.474.804 1.474 1.125-.374-.303-.91-.504-1.608-.603a3.337 3.337 0 0 0-1.944.282c-.6.287-.908.76-.925 1.422-.643 0-1.1.16-1.368.483-.393.464-.6 1.093-.617 1.89-.015.802.052 1.668.204 2.606zm-11.06-29.108c-.054-.018-.1-.07-.135-.16 0-.16.08-.223.24-.188.108.036.21.17.31.402.097.233.12.502.066.804 0 .053-.027.08-.08.08-.198 0-.27-.177-.215-.535.054-.268-.01-.402-.187-.402zm6.944.43l-.054.08c-.143.09-.214.107-.214.053-.072-.482-.232-.758-.483-.83-.036-.02-.072-.036-.107-.054-.125-.108-.063-.17.188-.187.053-.02.134.007.24.078.108.072.206.184.296.335.09.153.134.327.134.524z"/></g></svg>