<svg xmlns="http://www.w3.org/2000/svg" viewBox="0 0 182.054 129.758"><path fill="#FFF" d="M3.25 3.643h175v107h-175z"/><g fill="#A5A5B5"><path d="M117.56 126.443H64.495c-.927 0-1.684.746-1.684 1.658v1.66h56.434v-1.66c0-.91-.758-1.657-1.684-1.657z"/><path d="M73.517 107.527L69.58 126.99h42.896l-3.936-19.463z"/><path d="M108.54 107.527H73.517l17.022 20.01h21.936z"/><path d="M177.93 0H4.124C1.855 0 0 1.82 0 4.042V111.24h.05c.296 1.983 2.013 3.518 4.075 3.518H177.93c2.06 0 3.777-1.536 4.074-3.518h.05V4.042c0-2.222-1.857-4.042-4.125-4.042zm-3.872 105.766H7.996V8.42H174.06v97.346z"/></g><path fill="#A5A5B5" d="M103.587 56.303c-.058-5.83 4.753-8.623 4.968-8.762-2.704-3.954-6.915-4.496-8.415-4.56-3.584-.362-6.993 2.11-8.812 2.11-1.814 0-4.62-2.056-7.593-2.002-3.906.06-7.508 2.27-9.52 5.77-4.057 7.042-1.038 17.475 2.918 23.186 1.933 2.796 4.237 5.936 7.264 5.824 2.914-.116 4.016-1.886 7.54-1.886s4.512 1.886 7.597 1.828c3.135-.06 5.122-2.85 7.042-5.654 2.22-3.243 3.134-6.383 3.188-6.545-.07-.03-6.116-2.345-6.177-9.307zM97.793 39.2c1.606-1.95 2.69-4.653 2.394-7.35-2.314.094-5.117 1.54-6.778 3.485-1.49 1.725-2.794 4.478-2.445 7.12 2.584.203 5.22-1.31 6.828-3.256z"/></svg>