<svg xmlns="http://www.w3.org/2000/svg" viewBox="0 0 182.054 129.758"><path fill="#FFF" d="M3.77 3.533h175v107h-175z"/><g fill="#A5A5B5"><path d="M117.56 126.443H64.495c-.927 0-1.684.746-1.684 1.658v1.66h56.434v-1.66c0-.91-.758-1.657-1.684-1.657z"/><path d="M73.517 107.527L69.58 126.99h42.896l-3.936-19.463z"/><path d="M108.54 107.527H73.517l17.022 20.01h21.936z"/><path d="M177.93 0H4.124C1.855 0 0 1.82 0 4.042V111.24h.05c.296 1.983 2.013 3.518 4.075 3.518H177.93c2.06 0 3.777-1.536 4.074-3.518h.05V4.042c0-2.222-1.857-4.042-4.125-4.042zm-3.872 105.766H7.996V8.42H174.06v97.346z"/></g><path fill="#A5A5B5" d="M69.927 56.832h17.026V40.54l-17.026 2.467v13.825zm19.354-16.63v16.63h22.847V36.895L89.28 40.203zM69.928 72.985l17.026 2.466V59.16H69.927v13.824zm19.354 2.804l22.847 3.308V59.16H89.28v16.628z"/></svg>