<svg xmlns="http://www.w3.org/2000/svg" height="550.45" width="627.77" version="1" viewBox="0 0 627.769 550.45"><path fill="#5252c5" d="M614.57 504.94L335.17 21a24.51 24.51 0 0 0-42.46-.004L13.3 504.936a24.537 24.537 0 0 0 .003 24.52 24.518 24.518 0 0 0 21.23 12.25h558.81c8.76 0 16.86-4.67 21.23-12.25a24.52 24.52 0 0 0 0-24.52z"/><path fill="#fff" d="M93.977 482.88H533.9L313.94 101.89z"/><path d="M291.87 343.36c1.21 11.49 3.21 20.04 6.02 25.66 2.81 5.63 7.82 8.43 15.04 8.43h2.01c7.22 0 12.24-2.8 15.04-8.43 2.81-5.62 4.82-14.17 6.02-25.66l6.42-88.75c1.21-17.3 1.81-29.71 1.81-37.25 0-10.25-2.91-18.25-8.73-23.99-5.53-5.46-13.38-8.59-21.56-8.59s-16.04 3.13-21.57 8.59c-5.81 5.74-8.72 13.74-8.72 23.99 0 7.54.6 19.95 1.8 37.25l6.42 88.75z" fill="#5252c5"/><circle cy="430.79" cx="313.94" r="30.747" fill="#5252c5"/></svg>