<svg xmlns="http://www.w3.org/2000/svg" viewBox="0 0 96.899 58.997"><path fill="#FFF" d="M1.56 2.133h83.162v47.403H1.56z"/><g fill="#B5B6B6"><path d="M55.506 57.49H31.38a.763.763 0 0 0-.767.754v.754H56.27v-.754a.762.762 0 0 0-.766-.754z"/><path d="M35.48 48.89l-1.79 8.848h19.504l-1.79-8.85z"/><path d="M51.405 48.89H35.48l7.74 9.097h9.974z"/></g><path fill="#A9A8A8" d="M85.01 0H1.874C.844 0 0 .827 0 1.838v48.74h.023c.135.9.915 1.6 1.853 1.6H85.01c.937 0 1.718-.698 1.853-1.6h.023V1.838C86.886.828 86.04 0 85.01 0zm-1.76 48.088H3.635V3.828H83.25v44.26z"/><path fill="#FFF" d="M75.18 21.397h20.27v32.39H75.18z"/><path fill="#B4B4B4" d="M93.624 16.902H77.008a3.284 3.284 0 0 0-3.275 3.275V55.72a3.285 3.285 0 0 0 3.275 3.276h16.615A3.285 3.285 0 0 0 96.9 55.72V20.178a3.285 3.285 0 0 0-3.276-3.276zm.188 36.884H76.82a1.64 1.64 0 0 1-1.64-1.64v-29.11c0-.906.735-1.64 1.64-1.64h16.992c.905 0 1.64.734 1.64 1.64v29.11a1.64 1.64 0 0 1-1.64 1.64z"/><circle fill="#FFF" cx="85.316" cy="19.288" r=".411"/><path fill="#FFF" d="M86.684 56.147c.19.983-.66 1.83-1.642 1.644a1.396 1.396 0 0 1-1.094-1.093 1.396 1.396 0 0 1 2.736-.55zM61.588 31.47h14.84v23.71h-14.84z"/><path fill="#B4B4B4" d="M75.09 28.18H62.925a2.405 2.405 0 0 0-2.398 2.397V56.6a2.405 2.405 0 0 0 2.398 2.397H75.09a2.407 2.407 0 0 0 2.398-2.4v-26.02c0-1.32-1.08-2.398-2.398-2.398zm.138 27.002h-12.44a1.2 1.2 0 0 1-1.2-1.2V32.67a1.2 1.2 0 0 1 1.2-1.2h12.44a1.2 1.2 0 0 1 1.2 1.2v21.31a1.2 1.2 0 0 1-1.2 1.2z"/><circle fill="#FFF" cx="69.007" cy="29.926" r=".301"/><g><path fill="#38AEE4" d="M48.686 37.026H38.2c-.872 0-1.578.714-1.578 1.595s.706 1.597 1.577 1.597h10.485c.87 0 1.577-.714 1.577-1.595s-.706-1.594-1.577-1.594zm-6.41-5.343c.288.288.657.438 1.033.464.043.004.085.013.13.013.046 0 .09-.01.133-.013a1.603 1.603 0 0 0 1.035-.464l5.045-5.06a1.622 1.622 0 0 0 0-2.293 1.616 1.616 0 0 0-2.288 0l-2.33 2.336v-13.87a1.595 1.595 0 0 0-3.19 0v13.87L39.52 24.33a1.616 1.616 0 0 0-2.29 0 1.622 1.622 0 0 0 0 2.292l5.046 5.06z"/></g></svg>