<svg xmlns="http://www.w3.org/2000/svg" viewBox="0 0 19.487 17.097"><g fill="#5350E2"><path d="M7.38 5.045a2.935 2.935 0 0 0-.92-2.928L4.75.67C3.53-.35 1.69-.187.67 1.03s-.856 3.06.36 4.08l1.745 1.447c.888.724 2.04.855 3.027.428l.987.855L8.76 6.195 7.38 5.045zm-1.776.13c-.428.527-1.25.593-1.776.165L2.084 3.893c-.526-.427-.592-1.25-.164-1.776s1.25-.592 1.776-.164L5.44 3.4c.526.46.592 1.25.164 1.776zm4.87 5.758l5.33 4.474c1.084.92 2.63.757 3.55-.33l-6.91-5.822-1.97 1.678z"/><path d="M19.42 2.018a2.554 2.554 0 0 0-3.585-.33L5.8 10.112c-.985-.427-2.17-.295-3.025.43L1.03 11.985a2.91 2.91 0 0 0-.36 4.08 2.91 2.91 0 0 0 4.078.36l1.744-1.446a2.833 2.833 0 0 0 .954-2.896L19.42 2.018zM9.684 7.742c.493 0 .888.395.888.888s-.394.888-.887.888-.888-.394-.888-.887c.033-.46.428-.887.888-.887zM5.44 13.73l-1.744 1.447a1.288 1.288 0 0 1-1.776-.164 1.288 1.288 0 0 1 .164-1.776l1.744-1.447a1.288 1.288 0 0 1 1.776.164 1.288 1.288 0 0 1-.164 1.776z"/><path d="M13.04 8.367h1.61v.79h-1.61zm2.4 0h1.612v.79H15.44zm2.435 0h1.612v.79h-1.612z"/></g></svg>