<svg xmlns="http://www.w3.org/2000/svg" viewBox="0 0 18.4 31.6"><path fill="#4E4E56" d="M17.5 14H.8c-.4 0-.8.4-.8.9v1.7c0 .5.4.8.8.8H1l1.9 11.5c.3 1.6 1.5 2.7 2.9 2.7h6.8c1.4 0 2.6-1.1 2.9-2.7l1.9-11.5h.2c.5 0 .8-.4.8-.8v-1.7c0-.5-.4-.9-.9-.9zm-4.1 3.8l-.4-.4h.8l-.4.4zM7.9 29.9l-.5-.5 1.7-1.7 1.7 1.7-.5.5H7.9zM4.5 17.4h.8l-.4.4-.4-.4zm8.4 1l-1.4 1.4-1.7-1.7.7-.7h1.4l1 1zm-6.5-1h1.4l.7.7-1.7 1.7-1.4-1.4 1-1zm2.7.1l-.1-.1h.3l-.2.1zm0 1.2l1.7 1.7-1.7 1.7-1.7-1.7 1.7-1.7zm-.5 3.9l-1.7 1.7-1.7-1.7L6.9 21l1.7 1.6zm.5.6l1.7 1.7-1.7 1.7-1.7-1.7 1.7-1.7zm.6-.6l1.7-1.7 1.7 1.7-1.7 1.7-1.7-1.7zm-3.4-2.2l-1.7 1.7-1.4-1.4v-.1L4.8 19l1.5 1.4zm-2.8 1.7l.5.5-.3.4-.2-.9zm.7 4L3.8 24l.8-.8 1.7 1.7-1.7 1.7-.4-.5zm2.7-.6l1.7 1.7-1.7 1.7-1.7-1.7 1.7-1.7zm2.8 1.7l1.7-1.7 1.7 1.7-1.7 1.7-1.7-1.7zm2.3-2.3l1.7-1.7.9.9-.4 1.9-.5.5-1.7-1.6zm2.3-2.3l.6-.6-.2 1.1-.4-.5zm-.6-.5L12 20.4l1.4-1.4 1.7 1.7-1.4 1.4zM3.3 17.4l1 1-1.2 1.2-.4-2.2h.6zm1.3 11.2l-.1-.7.2-.2 1.7 1.7-.5.5c-1 0-1.3-1-1.3-1.3zm9.2 0c0 .2-.3 1.3-1.2 1.3h-.1l-.5-.5 1.7-1.7.2.2-.1.7zm1.5-9L14 18.4l1-1h.7l-.4 2.2z"/><g fill="#4E4E56"><path d="M4.7 5.3l-.6.7 5.1 5.1L14.3 6l-.7-.7-4 4.1V.6h-.9v8.7z"/><path d="M8.1 0h2.1v7.9l3.4-3.4L15.1 6l-5.9 5.9-6-5.9 1.5-1.5 3.4 3.4z"/></g></svg>