<svg xmlns="http://www.w3.org/2000/svg" viewBox="0 0 17.261 17.261"><g fill="#5350E2"><path d="M12.248 5.013a.53.53 0 0 0-.74 0L8.63 7.89 5.753 5.013c-.2-.2-.54-.2-.74 0s-.2.54 0 .74L7.86 8.63l-2.847 2.877c-.2.2-.2.54 0 .74.2.2.54.2.74 0L8.63 9.372l2.877 2.878c.2.2.54.2.74 0s.2-.54 0-.74L9.372 8.63l2.878-2.877c.2-.2.2-.54 0-.74z"/><path d="M11.877 12.895a1.02 1.02 0 0 1-.724-.294L8.63 10.08 6.107 12.6a1.037 1.037 0 0 1-1.448 0 1.037 1.037 0 0 1 0-1.446L7.156 8.63l-2.5-2.525a1.038 1.038 0 0 1 0-1.446 1.037 1.037 0 0 1 1.45 0L8.63 7.18l2.523-2.523a1.037 1.037 0 0 1 1.448 0 1.037 1.037 0 0 1 0 1.446L10.08 8.63l2.523 2.523a1.038 1.038 0 0 1 0 1.448 1.02 1.02 0 0 1-.723.296zM8.63 8.665l3.23 3.23L8.664 8.63l3.584-3.617-.353.354c-.007-.005-.028-.005-.035 0l-3.23 3.23-3.23-3.23L8.565 8.63l-3.197 3.23L8.63 8.663z"/></g><path fill="#5350E2" d="M8.63 0C3.874 0 0 3.874 0 8.63s3.874 8.63 8.63 8.63 8.63-3.874 8.63-8.63S13.387 0 8.63 0zm0 16.178c-4.16 0-7.548-3.39-7.548-7.548s3.39-7.548 7.548-7.548 7.52 3.39 7.52 7.548-3.36 7.548-7.52 7.548z"/></svg>