<?xml version="1.0" encoding="UTF-8"?>
<svg xmlns="http://www.w3.org/2000/svg" class="svg-pictogram svg-pictogram--edit" viewBox="0 0 100 100">
    <path d="M97.706 10.042L89.96 2.295c-1.786-1.765-4.65-1.765-6.415 0l-6.688 6.688a2.036 2.036 0 0 0 0 2.864l11.317 11.317c.785.785 2.06.785 2.844 0l6.688-6.708c1.765-1.766 1.765-4.63 0-6.414zM34.57 54.114L45.885 65.43c.785.786 2.06.786 2.844-.548l37.01-37.01c.785-.236.785-1.51 0-2.315L74.424 14.24a2.012 2.012 0 0 0-2.844 0L34.57 51.27a2.012 2.012 0 0 0 0 2.844zm-4.297 2.706a1.3 1.3 0 0 0-.294.433l-.1.294-5.51 16.063-.1.294c-.117.49.02 1.02.393 1.412.392.373.922.51 1.412.412l.294-.098 16.063-5.492.294-.098c.157-.078.294-.177.432-.294a1.516 1.516 0 0 0 0-2.138L32.39 56.84c-.55-.608-1.53-.608-2.12-.02z"/>
    <path d="M86.31 43.11a4.077 4.077 0 0 0-4.08 4.08v41.09a2.723 2.723 0 0 1-2.51 2.57h-68.1c-1.353-.097-2.432-1.215-2.51-2.57V20.342a2.702 2.702 0 0 1 2.706-2.59h41.032c2.256 0 4.08-1.822 4.08-4.08s-1.824-4.08-4.08-4.08H6.952A5.997 5.997 0 0 0 .97 15.594v77.455a5.98 5.98 0 0 0 5.982 5.982h77.455a5.993 5.993 0 0 0 5.982-5.983V47.19a4.075 4.075 0 0 0-4.08-4.08z"/>
</svg>