<svg xmlns="http://www.w3.org/2000/svg" viewBox="0 0 19.159 19.159"><g fill="#0068FF"><path d="M9.58 19.16C4.298 19.16 0 14.86 0 9.58 0 4.296 4.298 0 9.58 0s9.58 4.297 9.58 9.58c0 5.28-4.298 9.58-9.58 9.58zM9.58 1C4.85 1 1 4.848 1 9.58s3.85 8.58 8.58 8.58 8.58-3.85 8.58-8.58S14.31 1 9.58 1z"/><path d="M9.512 12.247c-.562 0-1.018.4-1.018.896v.192c0 .495.456.896 1.018.896s1.018-.4 1.018-.894v-.192c0-.495-.456-.896-1.018-.896zM6.83 7.417l.756.094a.52.52 0 0 0 .553-.332c.107-.285.26-.51.453-.673.275-.23.617-.348 1.026-.348.423 0 .76.11 1.012.334.25.224.375.49.375.803a1 1 0 0 1-.212.617c-.09.117-.373.366-.842.747-.47.38-.783.724-.94 1.028-.16.312-.216.657-.23 1.004a.523.523 0 0 0 .523.542h.427a.524.524 0 0 0 .52-.478c.018-.194.05-.34.1-.442.08-.172.292-.398.632-.68.657-.544 1.086-.974 1.287-1.29.2-.317.3-.652.3-1.007 0-.64-.272-1.202-.818-1.684-.545-.48-1.28-.723-2.203-.723-.877 0-1.585.238-2.125.714-.458.407-.738.888-.836 1.443a.28.28 0 0 0 .24.333z"/></g></svg>