<svg xmlns="http://www.w3.org/2000/svg" class="svg-pictogram svg-pictogram--info-circle" viewBox="0 0 100 100"><path fill="#0e4f9a" d="M66.7 81.3V70.8q0-1-.6-1.5t-1-.5h-6V35.4q0-1-.4-1.5T57 33H36q-.8 0-1.4.3t-.5 1.4V45q0 1 .8 1.6t1.4.6h6V68H36q-1 0-1.5.6t-.8 1.4v11q0 1 .8 1.4t1.4.6h29q1 0 1.4-.6T67 81zM58.3 23V12.4q0-1-.6-1.5t-1.5-1H43.8q-1 0-1.4.2t-.6 1.4v11q0 .7.6 1.3t1.5.6h12q1 0 1-.7t1-1zM100 50q0 13.6-6.7 25T75 93.4 50 100t-25-6.7T6.6 75 0 50t6.7-25T25 6.6 50 0t25 6.7T93.4 25t6.7 25z"/></svg>
