<svg xmlns="http://www.w3.org/2000/svg" viewBox="0 0 59.058 59.058"><path fill="#F3F3F3" d="M29.53 0C13.226 0 0 13.227 0 29.53s13.227 29.528 29.53 29.528 29.528-13.227 29.528-29.53C59.025 13.23 45.83 0 29.528 0zm.164 44.012c-8.1 0-14.682-6.58-14.682-14.682s6.58-14.682 14.682-14.682 14.682 6.58 14.682 14.682-6.58 14.682-14.682 14.682z"/><path fill="#E54246" d="M35.316 15.938c0-.033 0-.033 0 0zM18.518 2.612l5.787 13.326s2.645-.926 5.423-.86c2.645.066 5.456.66 5.62.827.1-.628 5.16-13.558 5.16-13.558S36.77.097 30.058.097c-6.714-.03-11.54 2.515-11.54 2.515zM29.33 43.715c-2.644-.066-5.455-.66-5.62-.827-.1.628-5.158 13.558-5.158 13.558s3.704 2.25 10.416 2.25 11.474-2.084 11.474-2.084l-5.688-13.756s-2.646.925-5.423.86zm-5.62-.86zM15.97 23.61c-.627-.1-13.557-5.158-13.557-5.158S.163 22.156.163 28.868 2.448 40.54 2.448 40.54l13.524-5.886s-.925-2.645-.86-5.423c.068-2.643.696-5.454.86-5.62zm0 0c0 .033.035.033 0 0zm26.95 11.673c0-.033-.032-.033 0 0zm13.625-16.898L42.92 24.238s.927 2.645.86 5.423c-.065 2.647-.66 5.458-.826 5.623.628.1 13.558 5.158 13.558 5.158s2.25-3.703 2.25-10.415-2.217-11.64-2.217-11.64z"/></svg>