<svg xmlns="http://www.w3.org/2000/svg" viewBox="0 0 16.513 16.513"><g fill="#5252cf" fill-opacity=".941"><path d="M14.933 0H1.58C.71 0 0 .71 0 1.58v13.354c0 .87.71 1.58 1.58 1.58h13.354c.87 0 1.58-.71 1.58-1.58V1.58c0-.87-.71-1.58-1.58-1.58zm-.205 10.112c-.154-.2-2.25-3.007-3.203-3.007s-2.24 1.66-2.24 1.66c-.27-.4-.7-1.02-1.172-1.64-1.507-1.98-2.124-2.22-2.528-2.197-.396.024-.978.32-2.874 3.554-.33.564-.65 1.13-.924 1.63V1.786h12.942v8.327z"/><circle cx="11.861" cy="4.159" r="1.183"/></g></svg>