<svg xmlns="http://www.w3.org/2000/svg" viewBox="0 0 22.897 14.31"><path fill="#FFF" d="M11.448 0C6.455 0 2.126 2.908 0 7.155c2.126 4.247 6.455 7.155 11.448 7.155s9.32-2.908 11.448-7.155C20.77 2.908 16.442 0 11.448 0zM9.302 2.728a2.147 2.147 0 1 1 0 4.293 2.147 2.147 0 0 1 0-4.29zm7.79 7.788c-1.69 1.078-3.64 1.648-5.644 1.648s-3.954-.57-5.645-1.648a10.898 10.898 0 0 1-3.34-3.36A10.89 10.89 0 0 1 6.07 3.63a5.724 5.724 0 1 0 10.758 0c.088.054.176.108.264.164a10.89 10.89 0 0 1 3.34 3.36 10.876 10.876 0 0 1-3.34 3.362z"/></svg>