<svg xmlns="http://www.w3.org/2000/svg" viewBox="0 0 44.772 59.11"><path fill="#8297A8" d="M43.448 4.228h-9.3l.628 2.903c.077.36.073.724.033 1.08h6.646v46.92H4.644V8.21h6.65a3.37 3.37 0 0 1 .035-1.083l.626-2.9h-9.3c-1.1 0-1.99.892-1.99 1.99V57.12c0 1.097.89 1.99 1.99 1.99H43.45c1.1 0 1.99-.893 1.99-1.99V6.218a1.993 1.993 0 0 0-1.992-1.99z"/><path fill="#363740" d="M36.47 19.723H23.136c-1.08 0-1.952.89-1.952 1.99s.872 1.99 1.952 1.99H36.47c1.08 0 1.95-.892 1.95-1.99 0-1.1-.87-1.99-1.95-1.99zm0 12.207H23.136c-1.08 0-1.952.89-1.952 1.99 0 1.098.872 1.99 1.952 1.99H36.47c1.08 0 1.95-.892 1.95-1.99 0-1.1-.87-1.99-1.95-1.99z"/><path fill="#4CB748" d="M8.048 19.19a1.99 1.99 0 0 0-.24 2.805l2.904 3.44a1.987 1.987 0 0 0 3.213-.238l5.223-8.456c.578-.934.29-2.16-.646-2.735a1.985 1.985 0 0 0-2.738.647l-3.78 6.12-1.133-1.34a1.987 1.987 0 0 0-2.8-.24zm4.766 11.747a2.984 2.984 0 1 0-.003 5.97 2.984 2.984 0 0 0 .005-5.97z"/><path fill="#363740" d="M36.47 43.87H23.136c-1.08 0-1.952.89-1.952 1.99 0 1.098.872 1.99 1.952 1.99H36.47c1.08 0 1.95-.89 1.95-1.99s-.87-1.99-1.95-1.99z"/><path fill="#4CB748" d="M12.814 42.877a2.984 2.984 0 1 0-.003 5.97 2.984 2.984 0 0 0 .005-5.97z"/><path fill="#8297A8" d="M14.608 9.202h16.884a1.36 1.36 0 0 0 1.064-.508c.26-.32.36-.743.27-1.148L31.43 1.078A1.366 1.366 0 0 0 30.095 0H16.008c-.643 0-1.2.45-1.336 1.078l-1.4 6.468a1.366 1.366 0 0 0 1.336 1.656z"/></svg>