<svg xmlns="http://www.w3.org/2000/svg" viewBox="0 0 17.261 17.261"><path fill="#FFF" d="M8.63 0C3.874 0 0 3.874 0 8.63s3.874 8.63 8.63 8.63 8.63-3.874 8.63-8.63S13.387 0 8.63 0zm0 16.178c-4.16 0-7.548-3.39-7.548-7.548s3.39-7.548 7.548-7.548 7.52 3.39 7.52 7.548-3.36 7.548-7.52 7.548z"/><path fill="#FFF" d="M14.473 8.802c-.293.274-.546.5-.787.74-.508.506-1.007 1.02-1.513 1.527-.294.292-.65.312-.907.06-.267-.266-.246-.63.054-.928l.607-.605H5.405c.25.257.47.477.68.705a.62.62 0 0 1 .072.78.595.595 0 0 1-.68.24.558.558 0 0 1-.216-.12c-.78-.758-1.56-1.52-2.42-2.36.15-.097.256-.14.33-.216.678-.677 1.35-1.362 2.025-2.04.226-.227.504-.272.75-.138a.58.58 0 0 1 .298.654.904.904 0 0 1-.22.378c-.183.2-.392.377-.59.563.01.02.022.037.034.056h6.47c-.242-.255-.45-.474-.657-.695-.18-.19-.252-.408-.164-.665.143-.418.65-.57.97-.265.79.753 1.564 1.522 2.387 2.327z"/></svg>