<svg xmlns="http://www.w3.org/2000/svg" viewBox="0 0 10.968 16.547"><path fill="#545454" d="M9.442 4.926H1.577C.74 4.926.08 5.586.08 6.423l.812 8.627c0 .837.66 1.497 1.497 1.497h6.367c.837 0 1.497-.66 1.497-1.497l.685-8.627a1.5 1.5 0 0 0-1.5-1.497zm-5.937 9.007c0 .406-.33.76-.76.76a.763.763 0 0 1-.762-.76v-6.75c0-.405.33-.76.76-.76.407 0 .762.33.762.76v6.75zm2.613 0c0 .406-.33.76-.76.76s-.762-.33-.762-.76v-6.75c0-.405.33-.76.76-.76.407 0 .762.33.762.76v6.75zm2.64 0c0 .406-.33.76-.762.76a.763.763 0 0 1-.76-.76v-6.75c0-.405.33-.76.76-.76.406 0 .76.33.76.76v6.75zM1.17 4.19l9.085-2.334A.938.938 0 0 0 10.94.714.976.976 0 0 0 9.773.03l-2.79.71a1.124 1.124 0 0 0-1.22-.46L4.695.56a1.132 1.132 0 0 0-.837.99l-3.147.81A.937.937 0 0 0 .03 3.506a.938.938 0 0 0 1.14.685z"/></svg>