<svg xmlns="http://www.w3.org/2000/svg" viewBox="0 0 12.724 19.289"><path fill="#5350E2" d="M10.985 5.768H1.77c-.957 0-1.74.783-1.74 1.74L.986 17.55c0 .956.783 1.74 1.74 1.74h7.433c.954 0 1.737-.784 1.737-1.74l.826-10.043c0-.956-.782-1.74-1.74-1.74zM4.03 16.246c0 .478-.392.87-.87.87s-.87-.392-.87-.87v-7.87a.87.87 0 0 1 1.738 0v7.87zm3.086 0a.87.87 0 0 1-1.738 0v-7.87a.87.87 0 0 1 1.738 0v7.87zm3.087 0a.87.87 0 0 1-1.738 0v-7.87a.87.87 0 0 1 1.738 0v7.87zm-8.87-11.39L11.9 2.16c.61-.13.913-.74.783-1.348-.13-.61-.738-.913-1.347-.783l-3.26.825C7.768.42 7.203.205 6.68.29L5.42.64c-.564.13-.912.61-.955 1.13l-3.653.957c-.608.13-.913.74-.782 1.348.13.61.74.956 1.304.782z"/></svg>