<svg xmlns="http://www.w3.org/2000/svg" viewBox="0 0 21.108 21.108"><path fill="#2BA0FF" d="M10.554 0C4.724 0 0 4.725 0 10.554c0 5.83 4.725 10.554 10.554 10.554 5.83 0 10.554-4.725 10.554-10.554C21.108 4.724 16.383 0 10.554 0zm0 5.602a2.66 2.66 0 1 1 0 5.32 2.66 2.66 0 0 1 0-5.32zm4.494 8.947a.4.4 0 0 1-.214.332c-.46.205-1.715.624-4.28.624s-3.818-.42-4.278-.624a.397.397 0 0 1-.216-.334v-.878c0-1.314 1-2.404 2.277-2.55a.216.216 0 0 1 .128.035 3.552 3.552 0 0 0 4.178 0 .21.21 0 0 1 .128-.035 2.577 2.577 0 0 1 2.28 2.55v.877z"/></svg>