<svg xmlns="http://www.w3.org/2000/svg" viewBox="0 0 256 256"><path fill-rule="evenodd" clip-rule="evenodd" fill="#009BFF" d="M256 69.408c0-15.01-12.282-27.293-27.293-27.293H126.14L98.85 14.822H27.293C12.283 14.822 0 27.104 0 42.115v183.98h255.977v-5.844c0-.075.023-.147.023-.224V69.408z"/><path fill="#FFF" d="M175.49 147.19c2.45 1.224 3.673 3.306 3.673 6.245v27.913c0 1.836-.55 3.428-1.653 4.775-1.102 1.347-2.51 2.02-4.224 2.02h-90.17c-1.592 0-2.938-.673-4.04-2.02-1.102-1.347-1.653-2.94-1.653-4.775v-27.914c0-2.938 1.224-5.02 3.673-6.244l25.343-11.753 9.915-4.59c-4.652-2.817-8.203-6.857-10.65-12.122-2.327-4.652-3.49-9.61-3.49-14.875 0-1.592.122-3.122.367-4.59.245-1.47.55-2.878.918-4.225 1.715-6.244 4.806-11.386 9.275-15.426s9.64-6.06 15.518-6.06c6 0 11.264 2.08 15.794 6.242 4.53 4.163 7.59 9.427 9.182 15.794.61 3.06.917 5.815.917 8.264 0 4.898-.98 9.612-2.938 14.142-2.45 5.51-6 9.672-10.65 12.488l10.465 4.958 24.424 11.752zm-101.476-9.134c-2.693 1.224-4.805 3.092-6.336 5.6-1.53 2.51-2.296 5.296-2.296 8.358v23.69H46.467c-1.347 0-2.45-.52-3.306-1.56-.855-1.043-1.284-2.358-1.284-3.95V147.79c0-2.694.98-4.408 2.938-5.142l28.465-13.222c-3.43-2.08-6.184-5.05-8.265-8.907s-3.122-8.174-3.122-12.95c0-3.305.55-6.457 1.653-9.457 1.102-3 2.602-5.6 4.5-7.805 1.897-2.205 4.1-3.95 6.61-5.235 2.51-1.286 5.234-1.928 8.172-1.928 1.96 0 3.795.306 5.51.918s3.366 1.408 4.957 2.387a42.207 42.207 0 0 0-3.122 15.977c0 4.284.612 8.416 1.836 12.395 1.223 3.98 2.937 7.56 5.14 10.743-1.346 1.47-2.754 2.632-4.223 3.49l-18.912 8.998zm137.172 4.876c1.958.98 2.938 2.694 2.938 5.142v22.405c0 1.59-.43 2.905-1.285 3.946-.86 1.04-1.96 1.56-3.31 1.56h-19.465v-23.69c0-3.06-.765-5.845-2.295-8.356-1.53-2.508-3.58-4.376-6.15-5.6l-18.182-8.63c-1.714-.98-3.368-2.387-4.958-4.224 2.082-3.183 3.704-6.703 4.866-10.56 1.163-3.857 1.745-7.927 1.745-12.212 0-2.816-.243-5.51-.732-8.08a40.732 40.732 0 0 0-2.204-7.53 22.736 22.736 0 0 1 5.142-2.662 16.422 16.422 0 0 1 5.694-1.01c2.938 0 5.692.643 8.262 1.928a21.395 21.395 0 0 1 6.704 5.234c1.896 2.204 3.396 4.805 4.498 7.805 1.103 3 1.654 6.15 1.654 9.456 0 4.652-1.042 8.907-3.122 12.763-2.082 3.856-4.714 6.825-7.897 8.906l28.095 13.405zm-137.172-4.876c-2.693 1.224-4.805 3.092-6.336 5.6-1.53 2.51-2.296 5.296-2.296 8.358v23.69H46.467c-1.347 0-2.45-.52-3.306-1.56-.855-1.043-1.284-2.358-1.284-3.95V147.79c0-2.694.98-4.408 2.938-5.142l28.465-13.222c-3.43-2.08-6.184-5.05-8.265-8.907s-3.122-8.174-3.122-12.95c0-3.305.55-6.457 1.653-9.457 1.102-3 2.602-5.6 4.5-7.805 1.897-2.205 4.1-3.95 6.61-5.235 2.51-1.286 5.234-1.928 8.172-1.928 1.96 0 3.795.306 5.51.918s3.366 1.408 4.957 2.387a42.207 42.207 0 0 0-3.122 15.977c0 4.284.612 8.416 1.836 12.395 1.223 3.98 2.937 7.56 5.14 10.743-1.346 1.47-2.754 2.632-4.223 3.49l-18.912 8.998zm136.32 4.876c1.958.98 2.938 2.694 2.938 5.142v22.405c0 1.59-.43 2.905-1.285 3.946-.857 1.04-1.96 1.56-3.307 1.56h-19.466v-23.69c0-3.06-.765-5.845-2.295-8.356-1.533-2.508-3.584-4.376-6.154-5.6l-18.18-8.63c-1.715-.98-3.37-2.387-4.96-4.224 2.083-3.183 3.705-6.703 4.867-10.56 1.163-3.857 1.745-7.927 1.745-12.212 0-2.816-.246-5.51-.735-8.08a40.732 40.732 0 0 0-2.204-7.53 22.736 22.736 0 0 1 5.142-2.662 16.422 16.422 0 0 1 5.694-1.01c2.94 0 5.693.643 8.263 1.928a21.395 21.395 0 0 1 6.703 5.234c1.897 2.204 3.397 4.806 4.5 7.806 1.102 3 1.653 6.15 1.653 9.457 0 4.652-1.042 8.907-3.122 12.763-2.082 3.857-4.714 6.826-7.897 8.907l28.097 13.405z"/></svg>