<svg xmlns="http://www.w3.org/2000/svg" viewBox="0 0 256 256"><path fill-rule="evenodd" clip-rule="evenodd" fill="#009BFF" d="M256 69.408c0-15.01-12.282-27.293-27.293-27.293H126.14L98.85 14.822H27.293C12.283 14.822 0 27.104 0 42.115v183.98h255.977v-5.844c0-.075.023-.147.023-.224V69.408z"/><path fill="#FFF" d="M193.18 97.49l-.37-.598c-8.63-13.925-27.08-18.26-41.004-9.634l-32.265 19.99c-13.922 8.627-18.257 27.078-9.632 41.006l.368.595a30.02 30.02 0 0 0 2.358 3.264l11.81-7.317a16.03 16.03 0 0 1-2.562-3.14l-.37-.597c-4.686-7.558-2.345-17.52 5.217-22.206l32.267-19.988c7.562-4.685 17.522-2.345 22.207 5.217l.37.595c4.683 7.562 2.342 17.525-5.216 22.207l-14.6 9.044a41.613 41.613 0 0 1-.787 16.545l22.574-13.985c13.93-8.62 18.266-27.074 9.636-41zm-47.456 28.577a29.894 29.894 0 0 0-2.36-3.266l-11.81 7.316a16.14 16.14 0 0 1 2.563 3.14l.37.597c4.686 7.562 2.346 17.522-5.216 22.207l-32.266 19.99c-7.562 4.682-17.522 2.342-22.207-5.217l-.37-.598c-4.683-7.562-2.343-17.522 5.216-22.207l14.6-9.044a41.677 41.677 0 0 1 .784-16.548L72.452 136.42c-13.924 8.627-18.26 27.078-9.634 41.006l.368.598c8.63 13.925 27.08 18.26 41.005 9.634l32.267-19.988c13.924-8.626 18.26-27.08 9.634-41.005l-.365-.598z"/></svg>