<svg xmlns="http://www.w3.org/2000/svg" xmlns:xlink="http://www.w3.org/1999/xlink" viewBox="0 0 256 256"><path fill="#F2F2F2" d="M88.788.613L37.964 56.63v198.757h180.072V.613z"/><path fill="#B0B0B0" d="M218.65 256H37.35V56.393l.16-.175L88.515 0H218.65v256zm-180.073-1.227h178.846V1.227H89.06l-50.483 55.64v197.906z"/><g fill="#B0B0B0"><path d="M88.788 56.63V.614L37.964 56.63z"/><path d="M87.56 3.79v51.615H40.734L87.56 3.79M88.79.614L37.964 56.63h50.823V.614z"/></g><defs><path id="a" d="M88.516 0L37.51 56.22l-.16.173V256h181.3V0z"/></defs><clipPath id="b"><use xlink:href="#a" overflow="visible"/></clipPath><path clip-path="url(#b)" fill="#B0B0B0" d="M41.37 391.274c-74.93 0-135.888-60.96-135.888-135.887 0-74.93 60.96-135.888 135.888-135.888s135.887 60.957 135.887 135.886c0 74.928-60.96 135.887-135.887 135.887zm0-264.774c-71.07 0-128.888 57.818-128.888 128.888 0 71.068 57.818 128.887 128.888 128.887 71.068 0 128.887-57.818 128.887-128.887 0-71.07-57.82-128.888-128.887-128.888z"/><path clip-path="url(#b)" fill="#B0B0B0" d="M174.943-10.333h7v322.666h-7z"/><path fill="#B0B0B0" d="M37.96 109.847h22.37v25.416H37.96zm124.316 119.5h25.416v25.416h-25.416z"/></svg>