<svg xmlns="http://www.w3.org/2000/svg" viewBox="0 0 256 256"><path fill="#36271D" d="M88.6 0L37.53 56.287V256h180.94V0z"/><path fill="#FF771A" d="M206.47 12v232H49.53V60.92L93.915 12H206.47m12-12H88.6L37.53 56.287V256h180.94V0z"/><path fill="#FF771A" d="M94.6 61.62V5.334L43.53 61.62zm49.862 152.45c-1.943 0-3.885.003-5.828 0-1.108-.002-1.25-.1-1.635-1.13-2.28-6.106-4.57-12.21-6.825-18.325-.253-.688-.573-.954-1.337-.95-8.18.043-16.357.055-24.536.044-.76-.003-1.13.224-1.394.97-2.184 6.165-4.423 12.312-6.618 18.474-.258.725-.72.94-1.414.938-3.67-.007-7.34 0-11.008-.005-1.098 0-1.34-.337-.964-1.373 1.57-4.325 3.137-8.65 4.732-12.966a67654.885 67654.885 0 0 1 19.063-51.515c.675-1.822.942-3.71 1.03-5.633.062-1.43.162-1.54 1.6-1.54h14.173c1.16 0 1.26.075 1.67 1.173 8.71 23.453 17.418 46.906 26.127 70.36.05.134.104.268.148.405.244.76.076 1.04-.727 1.057-1.34.03-2.684.01-4.027.012h-2.23zm-38.186-31.175h20.433c-3.51-10.194-6.98-20.292-10.51-30.552-2.797 10.406-6.59 20.34-9.925 30.552zm60.97 3.995v26.193c0 1.02-.003 1.02-1.035 1.02-3.596.002-7.194-.015-10.792.015-.7.006-.97-.162-.97-.914.017-17.56.016-35.117 0-52.676-.002-.735.24-.937.956-.93 3.646.03 7.292.033 10.938-.003.75-.007.92.248.92.955-.023 8.78-.015 17.56-.015 26.34zm-6.39-43.704c3.45.01 6.126 2.726 6.11 6.195-.018 3.377-2.786 6.09-6.185 6.064-3.402-.026-6.122-2.752-6.122-6.137 0-3.424 2.74-6.13 6.198-6.12z"/></svg>