<svg xmlns="http://www.w3.org/2000/svg" viewBox="0 0 256 256"><path fill="#354F6E" d="M88.6 0L37.53 56.287V256h180.94V0z"/><path fill="#75F4FF" d="M206.47 12v232H49.53V60.92L93.915 12H206.47m12-12H88.6L37.53 56.287V256h180.94V0z"/><path d="M96.82 190.758c-.018.28-.046.516-.046.754-.006 7.08-.01 14.16-.01 21.24 0 .788-.254 1.092-1.028 1.094-4.004.01-8.008.01-12.012 0-.783-.002-1.022-.307-1.02-1.18 0-3.907.006-7.814.004-11.72l-.042-58.303c0-.195.005-.39 0-.586-.015-.588.24-.91.856-.943 2.193-.116 4.383-.297 6.577-.357 4.83-.13 9.66-.307 14.49-.27 4.53.035 8.926.902 13.03 2.93 5.754 2.843 9.523 7.372 11.256 13.53 1.563 5.554 1.58 11.165-.1 16.682-2.47 8.104-8.118 13.06-16.042 15.61-2.923.937-5.937 1.383-9.002 1.447-2.074.044-4.15.018-6.224.027-.215 0-.428.025-.69.043zm-.02-25.115h-.02c0 4.15.01 8.3-.01 12.45-.004.555.134.803.714.805 2.266.01 4.55.247 6.794.032 4.65-.447 8.158-2.715 9.938-7.184 1.42-3.56 1.474-7.244.565-10.934-1.182-4.805-4.25-7.713-9.16-8.312-2.616-.32-5.3-.098-7.953-.14-.713-.013-.886.303-.88.977.027 4.103.013 8.204.013 12.306zm39.496 37.707c0-1.71-.02-3.42.017-5.128.008-.347.154-.883.387-.983.305-.133.824-.025 1.138.166 3.694 2.244 7.65 3.816 11.92 4.464 1.793.273 3.64.275 5.46.224.785-.022 1.628-.373 2.325-.78 1.998-1.163 2.432-3.582.83-5.24-.943-.977-2.153-1.762-3.366-2.398-2.504-1.313-5.118-2.416-7.636-3.705-2.504-1.28-4.846-2.83-6.86-4.826-2.602-2.578-3.905-5.715-4.09-9.36-.18-3.526.213-6.926 1.998-10.05 2.264-3.965 5.727-6.426 10.023-7.7 6.944-2.062 13.7-1.3 20.28 1.587 1.45.636 2.097 1.6 2.034 3.243-.108 2.828-.03 5.663-.032 8.496 0 1.307-.442 1.57-1.614.973-4.268-2.17-8.768-3.4-13.584-3.313-1.542.027-3.006.35-4.257 1.323-1.713 1.333-1.867 3.252-.366 4.81 1.226 1.274 2.805 2.01 4.355 2.79 3.267 1.643 6.564 3.23 9.77 4.986 1.354.74 2.575 1.77 3.74 2.8 2.785 2.46 4.22 5.6 4.487 9.31.258 3.563-.016 7.03-1.673 10.266-2.086 4.072-5.493 6.638-9.73 8.062-8.353 2.803-16.354 1.67-24.035-2.43-1.088-.58-1.56-1.446-1.523-2.683.05-1.634.012-3.27.012-4.907h-.006zM94.6 61.62V5.334L43.53 61.62z" fill="#75F4FF"/></svg>