<svg xmlns="http://www.w3.org/2000/svg" viewBox="0 0 256 256"><path fill="#ED5337" d="M88.599 0L37.531 56.287V256h180.938V0z"/><path fill="#BA2105" d="M88.599 56.287V0L37.531 56.287z"/><g fill="#FFF"><path d="M153.238 151.081h41.485v10.902h-41.485v-10.902zM153.238 171.224h41.485v10.916h-41.485v-10.916zM153.027 192.436h41.479v10.902h-41.479zM105.327 133.776c18.995 0 34.396 15.372 34.396 34.367h-34.395l-.001-34.367z"/><path d="M95.658 143.124v34.396h34.395c0 19.016-15.394 34.395-34.395 34.395s-34.381-15.38-34.381-34.395c0-19.002 15.387-34.396 34.381-34.396z"/></g></svg>