<svg xmlns="http://www.w3.org/2000/svg" viewBox="0 0 256 256"><path fill="#ED3737" d="M88.6 0L37.53 56.287V256h180.94V0z"/><path fill="#BA0505" d="M88.6 56.287V0L37.53 56.287z"/><path fill="#FF003C" d="M143.538 127.368h42.992v16.398h-42.992z"/><path fill="#6B69D6" d="M143.538 147.307h42.992v16.398h-42.992z"/><path fill="#4A1908" d="M64.434 115.32h78.29v72.9h-78.29z"/><circle fill="#6B69D6" cx="122.821" cy="131.054" r="21.963"/><path fill="#4A1908" d="M157.223 219.504l-25.456-10.182v-11.028h-7.533v11.046l-25.476 10.368a3.766 3.766 0 1 0 2.84 6.977l22.636-9.212v8.31A3.77 3.77 0 0 0 128 229.55a3.77 3.77 0 0 0 3.77-3.765v-8.35l22.654 9.066a3.77 3.77 0 0 0 4.9-2.097 3.77 3.77 0 0 0-2.1-4.898z"/><path fill="#FFF" d="M135.98 193.164h57.496v-87.302H62.526v87.297h57.516m26.483-60.957h32.99v8.67h-32.99v-8.67zm0 16.018h32.99v8.68h-32.99v-8.68zm-.168 16.87h32.986v8.67h-32.986v-8.67zm-37.933-46.65c15.105 0 27.353 12.227 27.353 27.33h-27.353v-27.33zm-7.69 7.436v27.353h27.354c0 15.12-12.242 27.352-27.353 27.352s-27.34-12.23-27.34-27.353c0-15.113 12.235-27.354 27.34-27.354z"/></svg>