<svg xmlns="http://www.w3.org/2000/svg" viewBox="0 0 10.968 16.547"><path fill="#545454" d="M9.442 4.926H1.577C.74 4.926.08 5.586.08 6.423l.812 8.627c0 .837.66 1.497 1.497 1.497h6.369c.837 0 1.497-.66 1.497-1.497l.685-8.627a1.5 1.5 0 0 0-1.498-1.497zm-5.937 9.007c0 .406-.33.761-.761.761a.763.763 0 0 1-.761-.761V7.184c0-.406.33-.761.761-.761.406 0 .761.33.761.761v6.749zm2.613 0c0 .406-.33.761-.761.761s-.761-.33-.761-.761V7.184c0-.406.33-.761.761-.761.406 0 .761.33.761.761v6.749zm2.639 0c0 .406-.33.761-.761.761a.763.763 0 0 1-.761-.761V7.184c0-.406.33-.761.761-.761.406 0 .761.33.761.761v6.749zM1.171 4.19l9.084-2.334A.938.938 0 0 0 10.94.714.976.976 0 0 0 9.773.029l-2.791.71A1.124 1.124 0 0 0 5.763.282l-1.066.28a1.132 1.132 0 0 0-.837.989l-3.146.812a.937.937 0 0 0-.685 1.142.938.938 0 0 0 1.142.685z"/></svg>