<svg xmlns="http://www.w3.org/2000/svg" viewBox="0 0 30 30"><circle fill="#178BFF" cx="15" cy="15" r="15"/><g fill="#FFF"><path d="M21.069 5.714h-9.803c-.703 0-1.3.597-1.3 1.3V8.56h-1.23c-.703 0-1.3.597-1.3 1.3v12.93c0 .703.597 1.3 1.3 1.3h9.803c.703 0 1.3-.597 1.3-1.3v-1.546h1.23c.703 0 1.3-.597 1.3-1.3V7.014c0-.702-.597-1.3-1.3-1.3zm-2.354 17.077c0 .105-.07.176-.176.176H8.736c-.105 0-.176-.07-.176-.176V9.86c0-.105.07-.176.176-.176h9.803c.105 0 .176.07.176.176v12.931zm2.53-2.846c0 .105-.07.176-.176.176h-1.23V9.86c0-.703-.597-1.3-1.3-1.3H11.09V7.014c0-.105.07-.176.176-.176h9.803c.105 0 .176.07.176.176v12.931z"/><path d="M16.818 11.442h-6.325c-.316 0-.562.246-.562.562s.246.562.562.562h6.325a.555.555 0 0 0 .562-.562.578.578 0 0 0-.562-.562zM16.818 13.936h-6.325c-.316 0-.562.246-.562.562s.246.562.562.562h6.325c.316 0 .562-.246.562-.562s-.281-.562-.562-.562zM16.818 16.431h-6.325c-.316 0-.562.246-.562.562s.246.562.562.562h6.325a.555.555 0 0 0 .562-.562.578.578 0 0 0-.562-.562zM16.818 18.961h-6.325a.555.555 0 0 0-.562.562c0 .316.246.562.562.562h6.325c.316 0 .562-.246.562-.562s-.281-.562-.562-.562z"/></g></svg>