<svg xmlns="http://www.w3.org/2000/svg" viewBox="0 0 30 30"><circle fill="#178BFF" cx="15" cy="15" r="15"/><path fill="#FFF" d="M18.8 11.791h-7.572c-.791 0-1.429.639-1.429 1.429l.791 8.271c0 .791.639 1.429 1.429 1.429h6.112c.791 0 1.429-.639 1.429-1.429l.669-8.271a1.427 1.427 0 0 0-1.429-1.429zm-5.716 8.636c0 .395-.334.73-.73.73s-.73-.334-.73-.73V13.95a.74.74 0 0 1 .73-.73.74.74 0 0 1 .73.73v6.477zm2.524 0a.74.74 0 0 1-.73.73.74.74 0 0 1-.73-.73V13.95c0-.395.334-.73.73-.73s.73.334.73.73v6.477zm2.523 0c0 .395-.334.73-.73.73s-.73-.334-.73-.73V13.95c0-.395.334-.73.73-.73s.73.334.73.73v6.477zm-7.267-9.366l8.697-2.22c.487-.122.76-.608.639-1.095-.122-.487-.608-.76-1.095-.639l-2.676.669a1.118 1.118 0 0 0-1.156-.456l-1.034.274c-.456.122-.76.517-.791.943l-3.01.791c-.486.121-.76.608-.638 1.095.091.486.577.76 1.064.638z"/></svg>