<svg xmlns="http://www.w3.org/2000/svg" viewBox="0 0 30 30"><circle fill="#178BFF" cx="15" cy="15" r="15"/><path fill="#FFF" d="M18.293 17.469c-.58 0-1.114.197-1.541.526l-4.408-2.645c.022-.135.037-.273.037-.415 0-.142-.015-.279-.037-.415l4.408-2.645c.427.329.96.526 1.541.526a2.535 2.535 0 1 0-2.534-2.534c0 .141.015.279.037.415l-4.408 2.645a2.52 2.52 0 0 0-1.541-.526 2.535 2.535 0 0 0 0 5.068c.581 0 1.114-.197 1.541-.526l4.408 2.645a2.572 2.572 0 0 0-.037.415 2.535 2.535 0 1 0 2.534-2.534z"/></svg>